<svg xmlns="http://www.w3.org/2000/svg" fill="none" viewBox="0 0 24 24"><path fill="#000" fill-rule="evenodd" d="M12.991 2.869a1 1 0 0 0-1.982 0l-.002.008-.004.033-.02.137a20 20 0 0 1-.486 2.224c-.384 1.373-.955 2.773-1.704 3.522s-2.15 1.32-3.522 1.704a20 20 0 0 1-2.36.506l-.034.005h-.008a1 1 0 0 0 0 1.983l.008.002.033.004.137.02a20 20 0 0 1 2.224.486c1.373.384 2.773.955 3.522 1.704s1.32 2.15 1.704 3.522a20 20 0 0 1 .506 2.36l.005.034v.008a1 1 0 0 0 1.983 0l.002-.008.004-.033.02-.137a20 20 0 0 1 .486-2.224c.384-1.373.955-2.773 1.704-3.522s2.15-1.32 3.522-1.704a20 20 0 0 1 2.36-.506l.034-.005h.008a1 1 0 0 0 0-1.983l-.008-.002-.033-.004-.137-.02a20 20 0 0 1-2.224-.486c-1.373-.384-2.773-.955-3.522-1.704s-1.32-2.15-1.704-3.522a20 20 0 0 1-.506-2.36l-.005-.034zM16.872 12c-1.108-.407-2.27-.984-3.08-1.793-.808-.81-1.385-1.971-1.792-3.08-.407 1.109-.984 2.27-1.793 3.08-.81.81-1.971 1.386-3.08 1.793 1.109.407 2.27.984 3.08 1.793.81.81 1.386 1.971 1.793 3.08.407-1.109.984-2.27 1.793-3.08.81-.81 1.971-1.386 3.08-1.793" clip-rule="evenodd"/></svg>